<?xml version="1.0" standalone="no"?>
<!DOCTYPE svg PUBLIC "-//W3C//DTD SVG 20010904//EN"
 "http://www.w3.org/TR/2001/REC-SVG-20010904/DTD/svg10.dtd">
<svg version="1.0" xmlns="http://www.w3.org/2000/svg"
 width="300.000000pt" height="300.000000pt" viewBox="0 0 300.000000 300.000000"
 preserveAspectRatio="xMidYMid meet">

<g transform="translate(0.000000,300.000000) scale(0.100000,-0.100000)"
fill="#000000" stroke="none">
<path d="M1505 2184 l-560 -63 185 4 c102 3 394 10 650 16 256 7 467 13 469
15 9 8 -23 64 -45 79 -35 23 -83 19 -699 -51z"/>
<path d="M748 2103 c-15 -2 -41 -18 -58 -34 l-30 -31 0 -563 0 -563 26 -31 26
-31 770 0 c508 0 776 3 789 10 42 23 49 58 49 260 l0 190 -39 0 c-25 0 -41 -5
-45 -15 -7 -19 -26 -19 -26 0 0 13 -28 15 -190 15 l-189 0 -34 30 c-80 70 -75
262 9 317 24 15 54 18 215 21 178 3 187 5 192 24 6 22 27 16 27 -8 0 -10 12
-14 41 -14 l40 0 -3 181 -3 181 -33 29 -32 29 -679 0 c-373 0 -705 2 -737 4
-32 2 -71 2 -86 -1z m115 -88 c1 -5 -13 -11 -30 -13 -34 -3 -46 13 -15 21 24
7 43 4 45 -8z m88 0 c0 -5 -7 -12 -16 -13 -23 -5 -47 6 -40 19 8 13 56 8 56
-6z m99 0 c0 -16 -55 -22 -64 -6 -8 13 5 21 36 21 18 0 28 -5 28 -15z m95 0
c0 -5 -15 -11 -32 -13 -25 -3 -33 1 -33 13 0 12 8 16 33 13 17 -2 32 -7 32
-13z m86 0 c0 -5 -7 -12 -16 -13 -23 -5 -47 6 -40 19 8 13 56 8 56 -6z m97 3
c-5 -15 -33 -22 -54 -14 -24 9 -6 26 27 26 20 0 29 -4 27 -12z m92 -3 c0 -10
-10 -15 -30 -15 -20 0 -30 5 -30 15 0 10 10 15 30 15 20 0 30 -5 30 -15z m91
0 c0 -5 -7 -12 -16 -13 -23 -5 -47 6 -40 19 8 13 56 8 56 -6z m97 3 c-5 -15
-33 -22 -54 -14 -24 9 -6 26 27 26 20 0 29 -4 27 -12z m92 -3 c0 -10 -10 -15
-30 -15 -20 0 -30 5 -30 15 0 10 10 15 30 15 20 0 30 -5 30 -15z m93 0 c-4
-15 -56 -12 -61 3 -3 10 5 13 29 10 19 -2 33 -7 32 -13z m95 3 c-5 -15 -33
-22 -54 -14 -24 9 -6 26 27 26 20 0 29 -4 27 -12z m92 -3 c0 -10 -10 -15 -30
-15 -20 0 -30 5 -30 15 0 10 10 15 30 15 20 0 30 -5 30 -15z m93 0 c-4 -15
-56 -12 -61 3 -3 10 5 13 29 10 19 -2 33 -7 32 -13z m75 9 c32 -9 27 -24 -7
-24 -30 0 -46 12 -34 24 8 7 12 7 41 0z m-1374 -68 c-3 -14 -12 -26 -20 -26
-18 0 -18 10 2 38 20 28 27 23 18 -12z m1446 15 c12 -24 13 -41 2 -41 -8 0
-32 43 -32 55 0 13 21 3 30 -14z m18 -102 c-5 -35 -28 -36 -28 -1 0 16 3 32 7
36 11 11 25 -10 21 -35z m-1478 -4 c0 -19 -4 -35 -10 -35 -5 0 -10 16 -10 35
0 19 5 35 10 35 6 0 10 -16 10 -35z m0 -90 c0 -19 -4 -35 -10 -35 -11 0 -14
53 -3 63 11 12 13 8 13 -28z m1480 5 c0 -20 -5 -30 -15 -30 -10 0 -15 10 -15
30 0 20 5 30 15 30 10 0 15 -10 15 -30z m-1480 -100 c0 -16 -4 -30 -10 -30 -5
0 -10 14 -10 30 0 17 5 30 10 30 6 0 10 -13 10 -30z m0 -95 c0 -19 -4 -35 -10
-35 -5 0 -10 16 -10 35 0 19 5 35 10 35 6 0 10 -16 10 -35z m0 -90 c0 -19 -4
-35 -10 -35 -5 0 -10 16 -10 35 0 19 5 35 10 35 6 0 10 -16 10 -35z m0 -95 c0
-16 -4 -30 -10 -30 -5 0 -10 14 -10 30 0 17 5 30 10 30 6 0 10 -13 10 -30z m0
-95 c0 -19 -4 -35 -10 -35 -5 0 -10 16 -10 35 0 19 5 35 10 35 6 0 10 -16 10
-35z m0 -90 c0 -19 -4 -35 -10 -35 -5 0 -10 16 -10 35 0 19 5 35 10 35 6 0 10
-16 10 -35z m1480 5 c0 -20 -5 -30 -15 -30 -10 0 -15 10 -15 30 0 20 5 30 15
30 10 0 15 -10 15 -30z m-5 -93 c0 -39 -19 -38 -23 2 -3 24 0 32 10 29 7 -3
13 -17 13 -31z m-1475 -7 c0 -16 -4 -30 -10 -30 -5 0 -10 14 -10 30 0 17 5 30
10 30 6 0 10 -13 10 -30z m1476 -94 c-3 -14 -11 -26 -16 -26 -11 0 -14 53 -3
64 13 12 26 -13 19 -38z m-1474 4 c5 -30 -3 -46 -16 -33 -9 10 -7 63 3 63 5 0
11 -14 13 -30z m1448 -58 c0 -14 -39 -46 -47 -39 -3 4 2 16 12 27 19 21 35 26
35 12z m-1405 -14 c25 -11 34 -28 14 -28 -17 0 -49 20 -49 30 0 13 4 12 35 -2z
m115 -28 c0 -5 -16 -10 -35 -10 -19 0 -35 5 -35 10 0 6 16 10 35 10 19 0 35
-4 35 -10z m90 0 c0 -5 -13 -10 -30 -10 -16 0 -30 5 -30 10 0 6 14 10 30 10
17 0 30 -4 30 -10z m90 0 c0 -5 -13 -10 -30 -10 -16 0 -30 5 -30 10 0 6 14 10
30 10 17 0 30 -4 30 -10z m100 0 c0 -5 -16 -10 -35 -10 -19 0 -35 5 -35 10 0
6 16 10 35 10 19 0 35 -4 35 -10z m90 0 c0 -5 -13 -10 -30 -10 -16 0 -30 5
-30 10 0 6 14 10 30 10 17 0 30 -4 30 -10z m90 0 c0 -5 -13 -10 -30 -10 -16 0
-30 5 -30 10 0 6 14 10 30 10 17 0 30 -4 30 -10z m100 0 c0 -5 -16 -10 -35
-10 -19 0 -35 5 -35 10 0 6 16 10 35 10 19 0 35 -4 35 -10z m90 0 c0 -5 -13
-10 -29 -10 -17 0 -33 5 -36 10 -4 6 8 10 29 10 20 0 36 -4 36 -10z m90 0 c0
-5 -13 -10 -30 -10 -16 0 -30 5 -30 10 0 6 14 10 30 10 17 0 30 -4 30 -10z
m100 0 c0 -5 -16 -10 -35 -10 -19 0 -35 5 -35 10 0 6 16 10 35 10 19 0 35 -4
35 -10z m90 0 c0 -5 -16 -10 -35 -10 -19 0 -35 5 -35 10 0 6 16 10 35 10 19 0
35 -4 35 -10z m90 0 c0 -5 -13 -10 -30 -10 -16 0 -30 5 -30 10 0 6 14 10 30
10 17 0 30 -4 30 -10z m100 0 c0 -5 -16 -10 -35 -10 -19 0 -35 5 -35 10 0 6
16 10 35 10 19 0 35 -4 35 -10z m90 0 c0 -5 -16 -10 -35 -10 -19 0 -35 5 -35
10 0 6 16 10 35 10 19 0 35 -4 35 -10z"/>
<path d="M1830 1637 c-38 -19 -60 -72 -60 -145 0 -65 14 -104 47 -135 18 -16
44 -17 299 -15 l279 3 3 139 c2 93 -1 143 -9 152 -16 19 -521 20 -559 1z m180
-56 c37 -26 54 -83 36 -125 -18 -42 -61 -76 -98 -76 -93 0 -151 106 -96 175
42 53 104 64 158 26z"/>
<path d="M1881 1544 c-24 -30 -26 -52 -10 -87 21 -47 80 -60 123 -26 33 26 37
88 6 119 -31 31 -93 27 -119 -6z"/>
</g>
</svg>
